<svg width="68" height="69" viewBox="0 0 68 69" fill="none" xmlns="http://www.w3.org/2000/svg">
<path d="M54.4 27.6C61.8995 27.6 68 21.4098 68 13.8C68 6.19023 61.8995 0 54.4 0C48.9541 0 44.2587 3.272 42.0888 7.97419L38.447 6.61025C38.4902 6.32725 38.5333 6.04424 38.5333 5.75C38.5333 2.57964 35.9911 0 32.8667 0C29.7423 0 27.2 2.57964 27.2 5.75C27.2 8.92036 29.7423 11.5 32.8667 11.5C34.8965 11.5 36.6668 10.4017 37.6673 8.76987L41.303 10.1316C40.9837 11.3023 40.8 12.5281 40.8 13.8C40.8 15.3066 41.0468 16.7531 41.489 18.1114L29.0245 23.4717C26.7424 19.0935 22.2123 16.1 17 16.1C15.3111 16.1 13.6996 16.4291 12.206 17.0018L9.07109 10.3169C10.4368 9.2657 11.3333 7.61875 11.3333 5.75C11.3333 2.57964 8.79108 0 5.66667 0C2.54225 0 0 2.57964 0 5.75C0 8.92036 2.54225 11.5 5.66667 11.5C6.13815 11.5 6.59027 11.4242 7.0291 11.3125L10.1602 17.9906C6.12432 20.3872 3.4 24.8216 3.4 29.9C3.4 34.6701 5.79837 38.8804 9.43411 41.3596L7.36113 45.1409C6.82158 44.9685 6.26045 44.85 5.66667 44.85C2.54225 44.85 0 47.4296 0 50.6C0 53.7704 2.54225 56.35 5.66667 56.35C8.79108 56.35 11.3333 53.7704 11.3333 50.6C11.3333 48.8587 10.5503 47.3145 9.34225 46.26L11.4197 42.4708C13.1241 43.2536 15.01 43.7 17 43.7C20.11 43.7 22.9705 42.6236 25.2643 40.834L29.7251 45.8136C27.4629 48.2792 26.0667 51.5731 26.0667 55.2C26.0667 55.9036 26.1358 56.5892 26.2354 57.2642L20.9871 58.5281C20.084 56.5684 18.1355 55.2 15.8667 55.2C12.7423 55.2 10.2 57.7796 10.2 60.95C10.2 64.1204 12.7423 66.7 15.8667 66.7C18.9911 66.7 21.5333 64.1204 21.5333 60.95C21.5333 60.8865 21.5162 60.827 21.5151 60.7636L26.7534 59.5035C28.5397 65.0104 33.6486 69 39.6667 69C47.1661 69 53.2667 62.8098 53.2667 55.2C53.2667 52.8405 52.6784 50.6185 51.6447 48.6751L58.3019 44.2829C59.3312 45.3408 60.7567 46 62.3333 46C65.4577 46 68 43.4204 68 40.25C68 37.0796 65.4577 34.5 62.3333 34.5C59.2089 34.5 56.6667 37.0796 56.6667 40.25C56.6667 40.9929 56.8172 41.6987 57.0712 42.3512L50.3985 46.753C49.0632 45.0112 47.3294 43.6045 45.3333 42.6707L50.865 27.1104C51.9939 27.4192 53.1759 27.6 54.4 27.6V27.6ZM32.8667 9.2C30.9924 9.2 29.4667 7.65188 29.4667 5.75C29.4667 3.84812 30.9924 2.3 32.8667 2.3C34.741 2.3 36.2667 3.84812 36.2667 5.75C36.2667 7.65188 34.741 9.2 32.8667 9.2ZM2.26667 5.75C2.26667 3.84812 3.79235 2.3 5.66667 2.3C7.54098 2.3 9.06667 3.84812 9.06667 5.75C9.06667 7.65188 7.54098 9.2 5.66667 9.2C3.79235 9.2 2.26667 7.65188 2.26667 5.75ZM5.66667 54.05C3.79235 54.05 2.26667 52.5019 2.26667 50.6C2.26667 48.6981 3.79235 47.15 5.66667 47.15C7.54098 47.15 9.06667 48.6981 9.06667 50.6C9.06667 52.5019 7.54098 54.05 5.66667 54.05ZM15.8667 64.4C13.9924 64.4 12.4667 62.8519 12.4667 60.95C12.4667 59.0481 13.9924 57.5 15.8667 57.5C17.741 57.5 19.2667 59.0481 19.2667 60.95C19.2667 62.8519 17.741 64.4 15.8667 64.4ZM62.3333 36.8C64.2076 36.8 65.7333 38.3481 65.7333 40.25C65.7333 42.1519 64.2076 43.7 62.3333 43.7C60.459 43.7 58.9333 42.1519 58.9333 40.25C58.9333 38.3481 60.459 36.8 62.3333 36.8ZM47.7256 23.0736C48.2314 20.4136 50.5423 18.4 53.2667 18.4H55.5333C58.2576 18.4 60.5686 20.4136 61.0744 23.0736C59.1995 24.4661 56.8969 25.3 54.4 25.3C51.9031 25.3 49.6005 24.4661 47.7256 23.0736ZM54.4 16.1C52.5257 16.1 51 14.5519 51 12.65C51 10.7481 52.5257 9.2 54.4 9.2C56.2743 9.2 57.8 10.7481 57.8 12.65C57.8 14.5519 56.2743 16.1 54.4 16.1ZM54.4 2.3C60.6494 2.3 65.7333 7.45872 65.7333 13.8C65.7333 16.675 64.6802 19.3018 62.9542 21.3199C62.1601 19.1979 60.5044 17.5044 58.4414 16.6683C59.4447 15.6306 60.0667 14.2138 60.0667 12.65C60.0667 9.47964 57.5244 6.9 54.4 6.9C51.2756 6.9 48.7333 9.47964 48.7333 12.65C48.7333 14.2138 49.3553 15.6306 50.3586 16.6683C48.2956 17.5044 46.6399 19.1979 45.8458 21.3199C44.1198 19.3018 43.0667 16.675 43.0667 13.8C43.0667 7.45872 48.1506 2.3 54.4 2.3V2.3ZM5.66667 29.9C5.66667 23.5587 10.7506 18.4 17 18.4C23.2494 18.4 28.3333 23.5587 28.3333 29.9C28.3333 32.784 27.2736 35.4175 25.5387 37.4385C24.7474 35.3086 23.0883 33.6066 21.0198 32.7683C22.022 31.7306 22.644 30.3138 22.644 28.75C22.644 25.5796 20.1017 23 16.9773 23C13.8529 23 11.3106 25.5796 11.3106 28.75C11.3106 30.3138 11.9326 31.7306 12.9359 32.7683C10.879 33.6004 9.22549 35.2878 8.42861 37.4014C6.71256 35.3855 5.66667 32.7671 5.66667 29.9V29.9ZM13.5773 28.75C13.5773 26.8481 15.103 25.3 16.9773 25.3C18.8516 25.3 20.3773 26.8481 20.3773 28.75C20.3773 30.6519 18.8516 32.2 16.9773 32.2C15.103 32.2 13.5773 30.6519 13.5773 28.75ZM10.3068 39.1584C10.8176 36.5058 13.1252 34.5 15.844 34.5H18.1106C20.8399 34.5 23.1553 36.5204 23.6539 39.1887C21.7829 40.5729 19.4875 41.4 17 41.4C14.4943 41.4 12.1844 40.5605 10.3068 39.1584ZM32.9735 64.4584C33.4842 61.8058 35.7919 59.8 38.5106 59.8H40.7773C43.5066 59.8 45.822 61.8204 46.3206 64.4887C44.4496 65.8729 42.1541 66.7 39.6667 66.7C37.1609 66.7 34.8511 65.8605 32.9735 64.4584ZM39.644 57.5C37.7697 57.5 36.244 55.9519 36.244 54.05C36.244 52.1481 37.7697 50.6 39.644 50.6C41.5183 50.6 43.044 52.1481 43.044 54.05C43.044 55.9519 41.5183 57.5 39.644 57.5ZM51 55.2C51 58.084 49.9403 60.7175 48.2054 62.7385C47.4141 60.6086 45.755 58.9066 43.6865 58.0683C44.6886 57.0306 45.3106 55.6138 45.3106 54.05C45.3106 50.8796 42.7684 48.3 39.644 48.3C36.5196 48.3 33.9773 50.8796 33.9773 54.05C33.9773 55.6138 34.5993 57.0306 35.6026 58.0683C33.5457 58.9004 31.8922 60.5878 31.0953 62.7014C29.3792 60.6855 28.3333 58.0671 28.3333 55.2C28.3333 48.8587 33.4173 43.7 39.6667 43.7C45.916 43.7 51 48.8587 51 55.2ZM43.2017 41.8896C42.0728 41.5808 40.8908 41.4 39.6667 41.4C36.5566 41.4 33.6962 42.4764 31.4024 44.266L26.9416 39.2864C29.2038 36.8208 30.6 33.5269 30.6 29.9C30.6 28.3934 30.3532 26.9469 29.911 25.5886L42.3755 20.2283C43.7717 22.9068 46.0123 25.0563 48.7344 26.3293L43.2017 41.8896Z" fill="url(#paint0_linear)"/>
<defs>
<linearGradient id="paint0_linear" x1="34" y1="0" x2="34" y2="69" gradientUnits="userSpaceOnUse">
<stop stop-color="#B58B4A"/>
<stop offset="0.291667" stop-color="#E4BA13"/>
<stop offset="0.75" stop-color="#E1B714"/>
<stop offset="1" stop-color="#B9914E"/>
</linearGradient>
</defs>
</svg>
