<svg width="70" height="79" viewBox="0 0 70 79" fill="none" xmlns="http://www.w3.org/2000/svg">
<path d="M35.6958 43.0881C35.5498 43.0565 35.3999 43.0508 35.2519 43.073C33.7691 42.9003 32.6505 41.6458 32.6479 40.1534C32.6479 39.4383 32.0681 38.8584 31.3529 38.8584C30.6377 38.8584 30.0579 39.4383 30.0579 40.1534C30.0617 42.6455 31.7285 44.8283 34.1314 45.4879V46.7829C34.1314 47.4981 34.7113 48.0779 35.4265 48.0779C36.1416 48.0779 36.7215 47.4981 36.7215 46.7829V45.5663C39.4949 44.9858 41.3799 42.4027 41.0884 39.5843C40.7963 36.766 38.4219 34.6242 35.5883 34.6236C33.9645 34.6236 32.6479 33.3071 32.6479 31.6832C32.6479 30.0594 33.9645 28.7428 35.5883 28.7428C37.2122 28.7428 38.5287 30.0594 38.5287 31.6832C38.5287 32.3984 39.1086 32.9783 39.8238 32.9783C40.5389 32.9783 41.1188 32.3984 41.1188 31.6832C41.115 29.0666 39.2818 26.8098 36.7215 26.2697V25.0911C36.7215 24.3759 36.1416 23.796 35.4265 23.796C34.7113 23.796 34.1314 24.3759 34.1314 25.0911V26.3488C31.4591 27.0785 29.7392 29.673 30.1072 32.4186C30.4752 35.1643 32.818 37.2137 35.5883 37.213C37.1907 37.213 38.4977 38.4961 38.5268 40.0978C38.5565 41.6995 37.2969 43.03 35.6958 43.0881V43.0881Z" fill="url(#paint0_linear)"/>
<path d="M16.8084 36.0181C16.8084 46.3897 25.216 54.7973 35.5877 54.7973C45.9594 54.7973 54.367 46.3897 54.367 36.0181C54.367 25.6464 45.9594 17.2388 35.5877 17.2388C25.2211 17.2502 16.8204 25.6514 16.8084 36.0181ZM35.5877 19.8288C44.529 19.8288 51.7769 27.0767 51.7769 36.0181C51.7769 44.9594 44.529 52.2073 35.5877 52.2073C26.6464 52.2073 19.3985 44.9594 19.3985 36.0181C19.4086 27.0812 26.6508 19.839 35.5877 19.8288Z" fill="url(#paint1_linear)"/>
<path d="M60.7515 57.9901L50.6068 62.7832C49.2062 60.178 46.5193 58.52 43.5625 58.4365L34.1975 58.1792C32.7147 58.1368 31.2597 57.7612 29.9412 57.0802L28.9883 56.5863C24.1092 54.043 18.2935 54.0493 13.4194 56.6027L13.4789 54.4439C13.4985 53.7287 12.935 53.1331 12.2199 53.1135L1.95064 52.8308C1.23546 52.8112 0.640426 53.3746 0.620824 54.0898L0.000496379 76.6252C-0.0191061 77.3404 0.54431 77.936 1.25949 77.9556L11.5287 78.2383H11.5641C12.266 78.2383 12.8402 77.6799 12.8592 76.9787L12.8889 75.9005L15.5567 74.4721C16.6039 73.9087 17.8281 73.7746 18.972 74.0984L34.9032 78.5697C34.931 78.5779 34.9589 78.5842 34.9873 78.5905C36.1388 78.8314 37.3124 78.9522 38.4886 78.9516C40.98 78.9529 43.4424 78.416 45.7068 77.3764C45.7624 77.3511 45.8162 77.3214 45.8674 77.2879L68.9662 62.3469C69.5416 61.9745 69.7275 61.2188 69.3905 60.6219C67.6756 57.5791 63.8721 56.42 60.7515 57.9901V57.9901ZM2.62535 75.4023L3.17422 55.4557L10.854 55.6669L10.3051 75.6141L2.62535 75.4023ZM44.5401 75.0633C41.7268 76.3331 38.5847 76.6834 35.5609 76.0656L19.6726 71.6057C17.8844 71.1004 15.9703 71.3097 14.3344 72.1893L12.9711 72.9197L13.3359 59.6576C17.6561 56.7842 23.1967 56.4889 27.7976 58.8861L28.7505 59.38C30.4161 60.24 32.2531 60.7142 34.1267 60.7686L43.4923 61.026C46.1229 61.1018 48.3569 62.9748 48.8906 65.5523L34.9405 65.1672C34.2254 65.1476 33.6303 65.7116 33.6101 66.4262C33.5905 67.1413 34.1545 67.737 34.8691 67.7566L50.2641 68.1803H50.3001C51.0014 68.1796 51.5749 67.6213 51.5939 66.9207C51.6097 66.3579 51.568 65.7945 51.4687 65.2405L61.8739 60.3241C61.884 60.3196 61.8941 60.3146 61.9042 60.3095C63.3801 59.5627 65.1646 59.8125 66.3787 60.9362L44.5401 75.0633Z" fill="url(#paint2_linear)"/>
<path d="M36.8833 13.5979V1.29504C36.8833 0.579857 36.3034 0 35.5882 0C34.8731 0 34.2932 0.579857 34.2932 1.29504V13.5979C34.2932 14.3131 34.8731 14.8929 35.5882 14.8929C36.3034 14.8929 36.8833 14.3131 36.8833 13.5979Z" fill="url(#paint3_linear)"/>
<path d="M46.5962 13.5977V7.77001C46.5962 7.05483 46.0164 6.47498 45.3012 6.47498C44.586 6.47498 44.0062 7.05483 44.0062 7.77001V13.5977C44.0062 14.3128 44.586 14.8927 45.3012 14.8927C46.0164 14.8927 46.5962 14.3128 46.5962 13.5977Z" fill="url(#paint4_linear)"/>
<path d="M27.1709 13.5977V7.77001C27.1709 7.05483 26.5911 6.47498 25.8759 6.47498C25.1607 6.47498 24.5809 7.05483 24.5809 7.77001V13.5977C24.5809 14.3128 25.1607 14.8927 25.8759 14.8927C26.5911 14.8927 27.1709 14.3128 27.1709 13.5977Z" fill="url(#paint5_linear)"/>
<defs>
<linearGradient id="paint0_linear" x1="35.5883" y1="23.796" x2="35.5883" y2="48.0779" gradientUnits="userSpaceOnUse">
<stop stop-color="#B58B4A"/>
<stop offset="0.291667" stop-color="#E4BA13"/>
<stop offset="0.75" stop-color="#E1B714"/>
<stop offset="1" stop-color="#B9914E"/>
</linearGradient>
<linearGradient id="paint1_linear" x1="35.5877" y1="17.2388" x2="35.5877" y2="54.7973" gradientUnits="userSpaceOnUse">
<stop stop-color="#B58B4A"/>
<stop offset="0.291667" stop-color="#E4BA13"/>
<stop offset="0.75" stop-color="#E1B714"/>
<stop offset="1" stop-color="#B9914E"/>
</linearGradient>
<linearGradient id="paint2_linear" x1="34.7791" y1="52.8303" x2="34.7791" y2="78.9516" gradientUnits="userSpaceOnUse">
<stop stop-color="#B58B4A"/>
<stop offset="0.291667" stop-color="#E4BA13"/>
<stop offset="0.75" stop-color="#E1B714"/>
<stop offset="1" stop-color="#B9914E"/>
</linearGradient>
<linearGradient id="paint3_linear" x1="35.5882" y1="0" x2="35.5882" y2="14.8929" gradientUnits="userSpaceOnUse">
<stop stop-color="#B58B4A"/>
<stop offset="0.291667" stop-color="#E4BA13"/>
<stop offset="0.75" stop-color="#E1B714"/>
<stop offset="1" stop-color="#B9914E"/>
</linearGradient>
<linearGradient id="paint4_linear" x1="45.3012" y1="6.47498" x2="45.3012" y2="14.8927" gradientUnits="userSpaceOnUse">
<stop stop-color="#B58B4A"/>
<stop offset="0.291667" stop-color="#E4BA13"/>
<stop offset="0.75" stop-color="#E1B714"/>
<stop offset="1" stop-color="#B9914E"/>
</linearGradient>
<linearGradient id="paint5_linear" x1="25.8759" y1="6.47498" x2="25.8759" y2="14.8927" gradientUnits="userSpaceOnUse">
<stop stop-color="#B58B4A"/>
<stop offset="0.291667" stop-color="#E4BA13"/>
<stop offset="0.75" stop-color="#E1B714"/>
<stop offset="1" stop-color="#B9914E"/>
</linearGradient>
</defs>
</svg>
