<svg width="59" height="81" viewBox="0 0 59 81" fill="none" xmlns="http://www.w3.org/2000/svg">
<path d="M36.419 29.5001C36.419 25.6845 33.3149 22.5803 29.4994 22.5803C25.684 22.5803 22.5798 25.6845 22.5798 29.5001C22.5798 33.3155 25.684 36.4196 29.4994 36.4196C33.3149 36.4196 36.419 33.3155 36.419 29.5001ZM24.9347 29.5001C24.9347 26.9829 26.9824 24.9351 29.4994 24.9351C32.0164 24.9351 34.0642 26.9829 34.0642 29.5001C34.0642 32.0171 32.0164 34.0648 29.4994 34.0648C26.9824 34.0648 24.9347 32.0171 24.9347 29.5001Z" fill="url(#paint0_linear)"/>
<path d="M56.5133 24.0356L54.1715 23.3781C53.5458 23.2023 52.8955 23.5673 52.7197 24.1933C52.5439 24.8194 52.9089 25.4695 53.5349 25.6453L55.8767 26.3028C56.3292 26.4299 56.6453 26.8467 56.6453 27.3168V31.6834C56.6453 32.1534 56.3293 32.5702 55.8767 32.6974L51.0047 34.0654C49.9352 34.3657 49.0779 35.1704 48.7116 36.2179C48.4611 36.9348 48.1664 37.6457 47.8359 38.3306C47.353 39.3314 47.3896 40.5077 47.9339 41.4771L50.4121 45.8904C50.6423 46.3001 50.5708 46.8185 50.2386 47.1508L47.151 50.2383C46.8188 50.5708 46.3006 50.6423 45.8905 50.412L41.4774 47.9337C40.5364 47.4053 38.7028 47.2215 37.854 48.0576C36.2788 48.7675 34.5941 49.1225 34.0655 51.0046L32.6975 55.8766C32.5704 56.329 32.1534 56.6452 31.6836 56.6452H27.3171C26.8471 56.6452 26.4301 56.3292 26.3031 55.8767L24.9351 51.0046C24.4465 49.2648 22.98 48.8449 21.4981 48.2105V43.9203C21.8013 43.8566 22.0792 43.675 22.2558 43.3913C22.5994 42.8393 22.4307 42.1131 21.8785 41.7694C17.608 39.1104 15.0583 34.5238 15.0583 29.5C15.0583 21.5366 21.5369 15.058 29.5003 15.058C37.4637 15.058 43.9423 21.5366 43.9423 29.5C43.9423 37.4632 37.4637 43.9418 29.5003 43.9418C28.583 43.9418 27.6656 43.8553 26.7733 43.685C26.1339 43.5629 25.5178 43.9819 25.3959 44.6205C25.2739 45.2591 25.6927 45.8759 26.3313 45.9979C27.3689 46.1962 28.4352 46.2967 29.5003 46.2967C38.7622 46.2967 46.2971 38.7617 46.2971 29.5C46.2971 20.2382 38.7622 12.7032 29.5003 12.7032C20.2385 12.7032 12.7035 20.2382 12.7035 29.5C12.7035 34.7313 15.0816 39.5534 19.1433 42.7247V47.4995C18.5832 47.5074 18.0254 47.6518 17.5232 47.9339L13.1101 50.4121C12.7004 50.6424 12.182 50.571 11.8496 50.2386L8.76199 47.151C8.42965 46.8186 8.35822 46.3004 8.58852 45.8905L11.0667 41.4773C11.611 40.508 11.6476 39.3317 11.1647 38.3309C10.8342 37.646 10.5396 36.9351 10.2889 36.218C9.92261 35.1706 9.06545 34.366 7.99573 34.0657L3.12376 32.6977C2.67131 32.5705 2.35514 32.1537 2.35514 31.6837V27.3171C2.35514 26.8471 2.67116 26.4303 3.12376 26.3031L7.99573 24.9351C9.06529 24.6348 9.92261 23.8301 10.2889 22.7826C10.5394 22.0657 10.8341 21.3547 11.1645 20.6699C11.6474 19.6691 11.6109 18.4928 11.0666 17.5234L8.58836 13.1101C8.35822 12.7004 8.42965 12.182 8.76184 11.8498L11.8495 8.76215C12.1817 8.42996 12.7 8.35853 13.1099 8.58852L17.523 11.0667C18.4924 11.611 19.6686 11.6476 20.6696 11.1649C21.3537 10.8347 22.0647 10.54 22.7823 10.289C23.8297 9.92277 24.6345 9.06561 24.9348 7.99605L26.3028 3.12407C26.4299 2.67163 26.8469 2.35545 27.3168 2.35545H31.6832C32.1533 2.35545 32.5702 2.67147 32.6972 3.12391L34.0652 7.99605C34.3655 9.06561 35.1703 9.92277 36.2177 10.289C36.9354 10.54 37.6464 10.8347 38.3306 11.1649C39.3314 11.6476 40.5077 11.611 41.477 11.0667L45.8901 8.58852C46.3001 8.35853 46.8183 8.42981 47.1505 8.76215L50.2382 11.8498C50.5705 12.182 50.6419 12.7002 50.4116 13.1101L47.9334 17.5234C47.3891 18.4926 47.3526 19.6689 47.8355 20.6697C48.0797 21.1762 48.3053 21.6985 48.506 22.2223C48.7386 22.8296 49.4195 23.1333 50.0267 22.9005C50.6339 22.668 50.9376 21.9872 50.7051 21.3798C50.4809 20.7948 50.2291 20.2116 49.9562 19.6463C49.8074 19.3378 49.8187 18.9752 49.9865 18.6761L52.4646 14.2629C53.2093 12.9368 52.9782 11.2597 51.9029 10.1845L48.8159 7.09666C47.7406 6.02129 46.0634 5.79005 44.7373 6.5348L40.3242 9.01302C40.0253 9.18084 39.6625 9.1923 39.354 9.04347C38.5901 8.67486 37.7964 8.34582 36.9949 8.06559C36.6728 7.95288 36.4251 7.68866 36.3325 7.35883L34.9645 2.4867C34.5533 1.02262 33.204 0 31.6832 0H27.3168C25.796 0 24.4467 1.02262 24.0355 2.4867L22.6676 7.35867C22.5749 7.68866 22.3272 7.95288 22.0049 8.06544C21.2036 8.34566 20.4099 8.67455 19.646 9.04332C19.3375 9.19214 18.9747 9.18068 18.6758 9.01286L14.2626 6.53464C12.9366 5.7902 11.2594 6.02113 10.1842 7.0965L7.0965 10.184C6.02113 11.2594 5.79005 12.9365 6.5348 14.2626L9.01302 18.6757C9.18084 18.9747 9.1923 19.3374 9.04332 19.6458C8.67439 20.4105 8.34535 21.2043 8.06559 22.0047C7.95287 22.327 7.68866 22.5746 7.35883 22.6672L2.48685 24.0352C1.02262 24.4464 0 25.7955 0 27.3163V31.6829C0 33.2037 1.02262 34.5528 2.48685 34.964L7.35883 36.332C7.68882 36.4246 7.95303 36.6723 8.06559 36.9943C8.3455 37.7951 8.67439 38.5887 9.04347 39.3534C9.1923 39.6619 9.18099 40.0245 9.01317 40.3236L6.53511 44.7368C5.79036 46.0627 6.02145 47.74 7.09682 48.8154L10.1845 51.903C11.2598 52.9781 12.9371 53.2092 14.263 52.4647L18.6761 49.9865C18.8213 49.9049 18.9815 49.8611 19.1433 49.8537V61.919H11.4556C10.9828 60.7099 9.80801 59.8499 8.43342 59.8499C6.64328 59.8499 5.1869 61.3063 5.1869 63.0965C5.1869 64.8866 6.64328 66.343 8.43342 66.343C9.80801 66.343 10.9829 65.483 11.4556 64.2739H20.3207C20.971 64.2739 21.4981 63.7467 21.4981 63.0965V50.7484C21.9925 50.9347 22.5068 51.0671 22.6679 51.6405L24.0359 56.5127C24.2547 57.2918 24.7406 57.9436 25.3751 58.3851V69.719H17.6874C17.2146 68.5099 16.0398 67.6499 14.6652 67.6499C12.8751 67.6499 11.4187 69.1063 11.4187 70.8964C11.4187 72.6866 12.8751 74.1429 14.6652 74.1429C16.0398 74.1429 17.2147 73.283 17.6874 72.0738H26.5525C27.2028 72.0738 27.73 71.5467 27.73 70.8964V58.9992H31.2707V77.1315C31.2707 77.7818 31.7978 78.309 32.4481 78.309H41.3132C41.7861 79.5181 42.9608 80.3781 44.3354 80.3781C46.1255 80.3781 47.5819 78.9217 47.5819 77.1315C47.5819 75.3414 46.1255 73.885 44.3354 73.885C42.9608 73.885 41.7859 74.745 41.3132 75.9541H33.6255V58.3859C34.26 57.9444 34.7461 57.2924 34.9648 56.5133L36.3328 51.6413C36.4938 51.0679 37.0081 50.9355 37.5025 50.7492V69.3314C37.5025 69.9817 38.0297 70.5088 38.6799 70.5088H47.545C48.0179 71.718 49.1926 72.5779 50.5672 72.5779C52.3574 72.5779 53.8137 71.1216 53.8137 69.3314C53.8137 67.5413 52.3574 66.0849 50.5672 66.0849C49.1926 66.0849 48.0177 66.9449 47.545 68.154H39.8573V49.8545C40.019 49.8617 40.1793 49.9057 40.3245 49.9871L44.7376 52.4654C46.0637 53.21 47.7408 52.979 48.8162 51.9037L51.9038 48.816C52.9792 47.7406 53.2101 46.0634 52.4655 44.7375L49.987 40.3242C49.8192 40.0251 49.8077 39.6625 49.9567 39.354C50.3256 38.5893 50.6547 37.7956 50.9344 36.9951C51.0471 36.673 51.3113 36.4252 51.6412 36.3326L56.5132 34.9646C57.9774 34.5535 59 33.2043 59 31.6836V27.3169C59.0002 25.796 57.9775 24.4469 56.5133 24.0356V24.0356ZM8.4331 63.9889C7.94141 63.9889 7.54141 63.5889 7.54141 63.0972C7.54141 62.6056 7.94141 62.2056 8.4331 62.2056C8.92479 62.2056 9.3248 62.6056 9.3248 63.0972C9.3248 63.5889 8.92463 63.9889 8.4331 63.9889ZM14.6649 71.7891C14.1732 71.7891 13.7732 71.3891 13.7732 70.8974C13.7732 70.4057 14.1732 70.0057 14.6649 70.0057C15.1566 70.0057 15.5566 70.4057 15.5566 70.8974C15.5566 71.3891 15.1566 71.7891 14.6649 71.7891ZM44.3351 76.2398C44.8268 76.2398 45.2268 76.6399 45.2268 77.1315C45.2268 77.6232 44.8268 78.0232 44.3351 78.0232C43.8434 78.0232 43.4434 77.6232 43.4434 77.1315C43.4434 76.6399 43.8434 76.2398 44.3351 76.2398ZM50.5669 68.4397C51.0586 68.4397 51.4586 68.8397 51.4586 69.3314C51.4586 69.8231 51.0586 70.2231 50.5669 70.2231C50.0752 70.2231 49.6752 69.8231 49.6752 69.3314C49.6752 68.8397 50.0754 68.4397 50.5669 68.4397Z" fill="url(#paint1_linear)"/>
<defs>
<linearGradient id="paint0_linear" x1="29.4994" y1="22.5803" x2="29.4994" y2="36.4196" gradientUnits="userSpaceOnUse">
<stop stop-color="#B58B4A"/>
<stop offset="0.291667" stop-color="#E4BA13"/>
<stop offset="0.75" stop-color="#E1B714"/>
<stop offset="1" stop-color="#B9914E"/>
</linearGradient>
<linearGradient id="paint1_linear" x1="29.5" y1="0" x2="29.5" y2="80.3781" gradientUnits="userSpaceOnUse">
<stop stop-color="#B58B4A"/>
<stop offset="0.291667" stop-color="#E4BA13"/>
<stop offset="0.75" stop-color="#E1B714"/>
<stop offset="1" stop-color="#B9914E"/>
</linearGradient>
</defs>
</svg>
