<svg width="65" height="76" viewBox="0 0 65 76" fill="none" xmlns="http://www.w3.org/2000/svg">
<path d="M63.2 49.6C63.2 53.8948 61.9624 58.0145 59.6502 61.8728C57.272 65.5768 53.6372 68.6585 48.581 71.0919C43.5391 73.319 37.388 74.5 30.1 74.5C25.0802 74.5 20.0493 73.9096 15.1035 72.9209C10.0948 71.8399 5.69016 70.1731 1.98369 68.1248L1.97716 68.1212L1.97058 68.1176L1.30357 67.7619L10.0451 48.822L10.7902 49.2603C10.7908 49.2606 10.7913 49.261 10.7919 49.2613C13.5809 50.9138 16.6694 52.1474 19.8501 52.9683C23.0263 53.7879 26.2102 54.2 29.2 54.2C31.6908 54.2 33.7814 53.7882 35.3876 52.8731C36.0148 52.5299 36.5589 52.1115 36.9404 51.5484C37.3343 50.9669 37.5 50.3126 37.5 49.6C37.5 49.1682 37.4933 48.0196 36.3194 47.0625C35.2351 46.1783 33.3208 45.6 30 45.6H19.9V29.9068L27.416 22.1981L29.0716 20.5H26.7H5.2V1H59.3V16.6909L48.1868 27.9991L47.0721 29.1334L48.5773 29.6465C52.8171 31.0919 56.1594 33.3923 58.6338 36.3426L58.6351 36.3441C61.6667 39.9442 63.2 44.4087 63.2 49.6Z" fill="url(#paint0_linear)" stroke="#F1C256" stroke-width="2"/>
<defs>
<linearGradient id="paint0_linear" x1="32.1" y1="0" x2="32.1" y2="75.5" gradientUnits="userSpaceOnUse">
<stop stop-color="#B58B4A"/>
<stop offset="0.291667" stop-color="#E4BA13"/>
<stop offset="0.755208" stop-color="#E1B714"/>
<stop offset="1" stop-color="#B9914E"/>
</linearGradient>
</defs>
</svg>
