<svg width="73" height="73" viewBox="0 0 73 73" fill="none" xmlns="http://www.w3.org/2000/svg">
<path d="M62.3095 10.6905C55.4154 3.79671 46.2495 0 36.5 0C26.7505 0 17.5846 3.79671 10.6907 10.6905C3.79657 17.5846 0 26.7505 0 36.5C0 46.2495 3.79657 55.4154 10.6907 62.3095C17.5846 69.2033 26.7505 73 36.5 73C46.2495 73 55.4154 69.2033 62.3095 62.3095C69.2033 55.4154 73 46.2495 73 36.5C73 26.7505 69.2033 17.5846 62.3095 10.6905V10.6905ZM36.5 70.1484C17.9462 70.1484 2.85156 55.0538 2.85156 36.5C2.85156 17.9462 17.9462 2.85156 36.5 2.85156C55.0538 2.85156 70.1484 17.9462 70.1484 36.5C70.1484 55.0538 55.0538 70.1484 36.5 70.1484V70.1484Z" fill="url(#paint0_linear)"/>
<path d="M36.5 6.84375C20.1476 6.84375 6.84375 20.1476 6.84375 36.5C6.84375 52.8524 20.1476 66.1562 36.5 66.1562C52.8524 66.1562 66.1562 52.8524 66.1562 36.5C66.1562 20.1476 52.8524 6.84375 36.5 6.84375ZM36.5 63.3047C21.7198 63.3047 9.69531 51.2801 9.69531 36.5C9.69531 21.7199 21.7198 9.69531 36.5 9.69531C51.2801 9.69531 63.3047 21.7199 63.3047 36.5C63.3047 51.2801 51.2801 63.3047 36.5 63.3047Z" fill="url(#paint1_linear)"/>
<path d="M60.0352 35.492C59.7702 35.2268 59.4023 35.0742 59.0273 35.0742C58.6524 35.0742 58.2845 35.2266 58.0193 35.492C57.7541 35.7573 57.6016 36.1235 57.6016 36.5C57.6016 36.875 57.754 37.2428 58.0193 37.5079C58.2845 37.7731 58.6524 37.9258 59.0273 37.9258C59.4023 37.9258 59.7702 37.7732 60.0352 37.5079C60.3006 37.2428 60.4531 36.875 60.4531 36.5C60.4531 36.125 60.3006 35.7572 60.0352 35.492Z" fill="url(#paint2_linear)"/>
<path d="M13.9727 35.0742C13.5977 35.0742 13.2298 35.2266 12.9646 35.492C12.6994 35.7572 12.5469 36.125 12.5469 36.5C12.5469 36.875 12.6994 37.2428 12.9646 37.5079C13.2298 37.7732 13.5977 37.9258 13.9727 37.9258C14.3476 37.9258 14.7155 37.7732 14.9807 37.5079C15.2459 37.2428 15.3984 36.875 15.3984 36.5C15.3984 36.125 15.2459 35.7572 14.9807 35.492C14.7155 35.2268 14.3476 35.0742 13.9727 35.0742Z" fill="url(#paint3_linear)"/>
<path d="M36.4991 57.6029C36.1241 57.6029 35.7563 57.754 35.4911 58.0207C35.2259 58.2859 35.0733 58.6524 35.0733 59.0287C35.0733 59.4037 35.2259 59.7715 35.4911 60.0353C35.7563 60.3019 36.1241 60.4545 36.4991 60.4545C36.8741 60.4545 37.2419 60.3019 37.507 60.0353C37.7722 59.7715 37.9249 59.4037 37.9249 59.0287C37.9249 58.6523 37.7723 58.2844 37.507 58.0207C37.2419 57.7539 36.8741 57.6029 36.4991 57.6029Z" fill="url(#paint4_linear)"/>
<path d="M36.4991 15.4492C36.8741 15.4492 37.2419 15.2981 37.507 15.0329C37.7723 14.7679 37.9249 14.4 37.9249 14.025C37.9249 13.6485 37.7723 13.2822 37.507 13.017C37.2419 12.7504 36.8741 12.5992 36.4991 12.5992C36.1241 12.5992 35.7563 12.7504 35.4911 13.017C35.2259 13.2822 35.0733 13.6486 35.0733 14.025C35.0733 14.4 35.2259 14.7679 35.4911 15.0329C35.7563 15.2982 36.1241 15.4492 36.4991 15.4492V15.4492Z" fill="url(#paint5_linear)"/>
<path d="M55.9962 23.8147C55.6197 23.8147 55.2534 23.966 54.9882 24.2312C54.723 24.4962 54.5704 24.8641 54.5704 25.2391C54.5704 25.6156 54.7229 25.9835 54.9882 26.2485C55.2534 26.5137 55.6211 26.6663 55.9962 26.6663C56.3712 26.6663 56.739 26.5138 57.0041 26.2485C57.2693 25.9819 57.422 25.614 57.422 25.2391C57.422 24.8641 57.2694 24.4976 57.0041 24.2312C56.739 23.966 56.3712 23.8147 55.9962 23.8147Z" fill="url(#paint6_linear)"/>
<path d="M16.9776 46.3401C16.6012 46.3401 16.2348 46.4926 15.9681 46.758C15.703 47.023 15.5518 47.3909 15.5518 47.7673C15.5518 48.1424 15.703 48.5103 15.9681 48.7753C16.2348 49.0405 16.6012 49.1931 16.9776 49.1931C17.3526 49.1931 17.719 49.0407 17.9856 48.7753C18.2508 48.5103 18.402 48.1424 18.402 47.7673C18.402 47.3909 18.2508 47.023 17.9856 46.758C17.719 46.4926 17.3512 46.3401 16.9776 46.3401V46.3401Z" fill="url(#paint7_linear)"/>
<path d="M47.752 54.5872C47.377 54.5872 47.0091 54.7397 46.7439 55.0051C46.4787 55.2701 46.3262 55.638 46.3262 56.0129C46.3262 56.3881 46.4786 56.7558 46.7439 57.021C47.0093 57.2862 47.377 57.4387 47.752 57.4387C48.1269 57.4387 48.4948 57.2863 48.7598 57.021C49.025 56.7558 49.1777 56.3881 49.1777 56.0129C49.1777 55.638 49.0252 55.2701 48.7598 55.0051C48.4948 54.7399 48.1269 54.5872 47.752 54.5872Z" fill="url(#paint8_linear)"/>
<path d="M25.2499 18.4652C25.6249 18.4652 25.9927 18.3127 26.2579 18.0475C26.5231 17.7823 26.6757 17.4144 26.6757 17.0394C26.6757 16.6644 26.5231 16.2966 26.2579 16.0314C25.9927 15.7663 25.6249 15.6136 25.2499 15.6136C24.8749 15.6136 24.507 15.7662 24.2419 16.0314C23.9767 16.2966 23.8241 16.6644 23.8241 17.0394C23.8241 17.4144 23.9767 17.7823 24.2419 18.0475C24.507 18.3125 24.8749 18.4652 25.2499 18.4652Z" fill="url(#paint9_linear)"/>
<path d="M47.7402 18.4239C48.1152 18.4239 48.4831 18.2714 48.7481 18.0047C49.0133 17.7397 49.166 17.3731 49.166 16.9969C49.166 16.6219 49.0135 16.2555 48.7481 15.9888C48.4816 15.7236 48.1152 15.5725 47.7402 15.5725C47.3637 15.5725 46.9974 15.7236 46.7322 15.9888C46.467 16.254 46.3145 16.6219 46.3145 16.9969C46.3145 17.3733 46.4669 17.7411 46.7322 18.0047C46.9974 18.2712 47.3637 18.4239 47.7402 18.4239Z" fill="url(#paint10_linear)"/>
<path d="M25.2129 54.5907C24.8365 54.5907 24.4701 54.7433 24.2034 55.0085C23.9382 55.2736 23.7871 55.6415 23.7871 56.0165C23.7871 56.3915 23.9382 56.7593 24.2034 57.0245C24.4701 57.2896 24.8365 57.4423 25.2129 57.4423C25.5879 57.4423 25.9557 57.2897 26.2209 57.0245C26.4861 56.7593 26.6387 56.3915 26.6387 56.0165C26.6387 55.6415 26.4861 55.2736 26.2209 55.0085C25.9557 54.7433 25.5879 54.5907 25.2129 54.5907Z" fill="url(#paint11_linear)"/>
<path d="M55.9845 46.3447C55.6095 46.3447 55.2417 46.4973 54.9765 46.7625C54.7113 47.0277 54.5587 47.3955 54.5587 47.7705C54.5587 48.1455 54.7111 48.5133 54.9765 48.7785C55.2417 49.0436 55.6095 49.1963 55.9845 49.1963C56.3595 49.1963 56.7273 49.0437 56.9924 48.7785C57.259 48.5133 57.4103 48.1455 57.4103 47.7705C57.4103 47.3955 57.259 47.0277 56.9924 46.7625C56.7273 46.4973 56.3595 46.3447 55.9845 46.3447Z" fill="url(#paint12_linear)"/>
<path d="M17.011 23.843C16.636 23.843 16.2682 23.9956 16.003 24.2609C15.7378 24.526 15.5852 24.8925 15.5852 25.2688C15.5852 25.6438 15.7378 26.0116 16.003 26.2768C16.2682 26.542 16.636 26.6946 17.011 26.6946C17.386 26.6946 17.7538 26.5422 18.019 26.2768C18.2856 26.0116 18.4368 25.6438 18.4368 25.2688C18.4368 24.8938 18.2856 24.526 18.019 24.2609C17.7538 23.9957 17.386 23.843 17.011 23.843Z" fill="url(#paint13_linear)"/>
<path d="M40.4227 37.3809H40.4118V31.651C40.4118 31.6116 40.4101 31.572 40.407 31.5328C40.3268 30.5709 39.7443 29.7848 38.9226 29.5303C38.1049 29.2768 37.2396 29.5879 36.6084 30.3626C35.9598 31.1584 32.9968 36.4998 32.1041 38.118C31.8604 38.5597 31.8682 39.0971 32.1247 39.5316C32.3812 39.966 32.848 40.2325 33.3525 40.2325H37.5604V42.1298C37.5604 42.9171 38.1989 43.5555 38.9862 43.5555C39.7735 43.5555 40.412 42.9171 40.412 42.1298V40.2325H40.4228C41.2101 40.2325 41.8486 39.594 41.8486 38.8067C41.8486 38.0194 41.21 37.3809 40.4227 37.3809V37.3809ZM37.5603 37.3809H35.7762C36.4185 36.2341 37.0424 35.1343 37.5603 34.2389V37.3809Z" fill="url(#paint14_linear)"/>
<path d="M27.65 40.7777H24.6836C25.2588 39.963 26.0374 38.8587 27.0901 37.3642C27.8741 36.2513 28.5997 35.0334 28.5997 33.6709C28.5997 31.3403 26.6308 29.3716 24.3004 29.3716C22.2507 29.3716 20.4764 30.83 20.0818 32.8391C19.9301 33.6119 20.4334 34.3612 21.206 34.5129C21.9788 34.6642 22.728 34.1613 22.8799 33.3887C23.0126 32.7133 23.61 32.223 24.3004 32.223C25.1158 32.223 25.7481 33.0013 25.7481 33.6707C25.7481 34.244 25.2195 35.0681 24.7589 35.722C21.2104 40.7597 20.7883 41.3453 20.7727 41.3671C20.4583 41.801 20.4139 42.3744 20.6575 42.8516C20.901 43.329 21.3917 43.6293 21.9275 43.6293H27.6501C28.4376 43.6293 29.0759 42.9908 29.0759 42.2035C29.0759 41.4162 28.4374 40.7777 27.65 40.7777V40.7777Z" fill="url(#paint15_linear)"/>
<path d="M51.6942 34.1874C51.0291 33.5188 50.1237 33.1798 49.0035 33.1798C48.4869 33.1798 48.0003 33.2733 47.5525 33.4458V30.7969C47.5525 30.0096 46.914 29.3711 46.1267 29.3711C45.3394 29.3711 44.7009 30.0096 44.7009 30.7969V42.2031C44.7009 42.9904 45.3394 43.6289 46.1267 43.6289C46.914 43.6289 47.5525 42.9904 47.5525 42.2031V38.2878C47.5525 36.9592 48.1492 36.0313 49.0035 36.0313C49.3371 36.0313 49.5623 36.0877 49.6726 36.1986C49.7703 36.2967 50.0884 36.737 50.0803 38.2931L50.0947 42.2084C50.0976 42.994 50.7353 43.629 51.5203 43.6289H51.5256C52.313 43.6259 52.9491 42.9853 52.9462 42.198L52.9318 38.2952C52.9418 36.3516 52.5487 35.0464 51.6942 34.1874V34.1874Z" fill="url(#paint16_linear)"/>
<defs>
<linearGradient id="paint0_linear" x1="36.5" y1="0" x2="36.5" y2="73" gradientUnits="userSpaceOnUse">
<stop stop-color="#B58B4A"/>
<stop offset="0.291667" stop-color="#E4BA13"/>
<stop offset="0.75" stop-color="#E1B714"/>
<stop offset="1" stop-color="#B9914E"/>
</linearGradient>
<linearGradient id="paint1_linear" x1="36.5" y1="6.84375" x2="36.5" y2="66.1562" gradientUnits="userSpaceOnUse">
<stop stop-color="#B58B4A"/>
<stop offset="0.291667" stop-color="#E4BA13"/>
<stop offset="0.75" stop-color="#E1B714"/>
<stop offset="1" stop-color="#B9914E"/>
</linearGradient>
<linearGradient id="paint2_linear" x1="59.0273" y1="35.0742" x2="59.0273" y2="37.9258" gradientUnits="userSpaceOnUse">
<stop stop-color="#B58B4A"/>
<stop offset="0.291667" stop-color="#E4BA13"/>
<stop offset="0.75" stop-color="#E1B714"/>
<stop offset="1" stop-color="#B9914E"/>
</linearGradient>
<linearGradient id="paint3_linear" x1="13.9727" y1="35.0742" x2="13.9727" y2="37.9258" gradientUnits="userSpaceOnUse">
<stop stop-color="#B58B4A"/>
<stop offset="0.291667" stop-color="#E4BA13"/>
<stop offset="0.75" stop-color="#E1B714"/>
<stop offset="1" stop-color="#B9914E"/>
</linearGradient>
<linearGradient id="paint4_linear" x1="36.4991" y1="57.6029" x2="36.4991" y2="60.4545" gradientUnits="userSpaceOnUse">
<stop stop-color="#B58B4A"/>
<stop offset="0.291667" stop-color="#E4BA13"/>
<stop offset="0.75" stop-color="#E1B714"/>
<stop offset="1" stop-color="#B9914E"/>
</linearGradient>
<linearGradient id="paint5_linear" x1="36.4991" y1="12.5992" x2="36.4991" y2="15.4492" gradientUnits="userSpaceOnUse">
<stop stop-color="#B58B4A"/>
<stop offset="0.291667" stop-color="#E4BA13"/>
<stop offset="0.75" stop-color="#E1B714"/>
<stop offset="1" stop-color="#B9914E"/>
</linearGradient>
<linearGradient id="paint6_linear" x1="55.9962" y1="23.8147" x2="55.9962" y2="26.6663" gradientUnits="userSpaceOnUse">
<stop stop-color="#B58B4A"/>
<stop offset="0.291667" stop-color="#E4BA13"/>
<stop offset="0.75" stop-color="#E1B714"/>
<stop offset="1" stop-color="#B9914E"/>
</linearGradient>
<linearGradient id="paint7_linear" x1="16.9769" y1="46.3401" x2="16.9769" y2="49.1931" gradientUnits="userSpaceOnUse">
<stop stop-color="#B58B4A"/>
<stop offset="0.291667" stop-color="#E4BA13"/>
<stop offset="0.75" stop-color="#E1B714"/>
<stop offset="1" stop-color="#B9914E"/>
</linearGradient>
<linearGradient id="paint8_linear" x1="47.752" y1="54.5872" x2="47.752" y2="57.4387" gradientUnits="userSpaceOnUse">
<stop stop-color="#B58B4A"/>
<stop offset="0.291667" stop-color="#E4BA13"/>
<stop offset="0.75" stop-color="#E1B714"/>
<stop offset="1" stop-color="#B9914E"/>
</linearGradient>
<linearGradient id="paint9_linear" x1="25.2499" y1="15.6136" x2="25.2499" y2="18.4652" gradientUnits="userSpaceOnUse">
<stop stop-color="#B58B4A"/>
<stop offset="0.291667" stop-color="#E4BA13"/>
<stop offset="0.75" stop-color="#E1B714"/>
<stop offset="1" stop-color="#B9914E"/>
</linearGradient>
<linearGradient id="paint10_linear" x1="47.7402" y1="15.5725" x2="47.7402" y2="18.4239" gradientUnits="userSpaceOnUse">
<stop stop-color="#B58B4A"/>
<stop offset="0.291667" stop-color="#E4BA13"/>
<stop offset="0.75" stop-color="#E1B714"/>
<stop offset="1" stop-color="#B9914E"/>
</linearGradient>
<linearGradient id="paint11_linear" x1="25.2129" y1="54.5907" x2="25.2129" y2="57.4423" gradientUnits="userSpaceOnUse">
<stop stop-color="#B58B4A"/>
<stop offset="0.291667" stop-color="#E4BA13"/>
<stop offset="0.75" stop-color="#E1B714"/>
<stop offset="1" stop-color="#B9914E"/>
</linearGradient>
<linearGradient id="paint12_linear" x1="55.9845" y1="46.3447" x2="55.9845" y2="49.1963" gradientUnits="userSpaceOnUse">
<stop stop-color="#B58B4A"/>
<stop offset="0.291667" stop-color="#E4BA13"/>
<stop offset="0.75" stop-color="#E1B714"/>
<stop offset="1" stop-color="#B9914E"/>
</linearGradient>
<linearGradient id="paint13_linear" x1="17.011" y1="23.843" x2="17.011" y2="26.6946" gradientUnits="userSpaceOnUse">
<stop stop-color="#B58B4A"/>
<stop offset="0.291667" stop-color="#E4BA13"/>
<stop offset="0.75" stop-color="#E1B714"/>
<stop offset="1" stop-color="#B9914E"/>
</linearGradient>
<linearGradient id="paint14_linear" x1="36.8876" y1="29.4437" x2="36.8876" y2="43.5555" gradientUnits="userSpaceOnUse">
<stop stop-color="#B58B4A"/>
<stop offset="0.291667" stop-color="#E4BA13"/>
<stop offset="0.75" stop-color="#E1B714"/>
<stop offset="1" stop-color="#B9914E"/>
</linearGradient>
<linearGradient id="paint15_linear" x1="24.5654" y1="29.3716" x2="24.5654" y2="43.6293" gradientUnits="userSpaceOnUse">
<stop stop-color="#B58B4A"/>
<stop offset="0.291667" stop-color="#E4BA13"/>
<stop offset="0.75" stop-color="#E1B714"/>
<stop offset="1" stop-color="#B9914E"/>
</linearGradient>
<linearGradient id="paint16_linear" x1="48.8236" y1="29.3711" x2="48.8236" y2="43.6289" gradientUnits="userSpaceOnUse">
<stop stop-color="#B58B4A"/>
<stop offset="0.291667" stop-color="#E4BA13"/>
<stop offset="0.75" stop-color="#E1B714"/>
<stop offset="1" stop-color="#B9914E"/>
</linearGradient>
</defs>
</svg>
