<svg width="65" height="76" viewBox="0 0 65 76" fill="none" xmlns="http://www.w3.org/2000/svg">
<path d="M20.7329 28.2441L1.36088 18.4667L1.78379 17.6679L1.78419 17.6671C4.49193 12.5418 8.55053 8.38425 13.8789 5.47789L13.8884 5.47268L13.8979 5.46725C19.1106 2.47478 25.5282 1 33 1C38.6854 1 43.7505 1.98014 48.111 3.82124L48.111 3.82127L48.1182 3.82426C52.5598 5.6588 56.004 8.34633 58.4856 11.7803C60.9687 15.3161 62.3 19.3146 62.3 23.8C62.3 27.7502 61.4337 31.6005 59.8006 35.0627C58.0753 38.5089 54.9729 42.409 50.031 46.8567L50.0279 46.8595L43.5279 52.7595L41.6104 54.5H44.2H64V74.5H5.8V58.8378L31.4783 35.1348L31.4836 35.1299L31.4888 35.125C33.4802 33.2332 35.0093 31.5224 35.7012 30.0336C36.3547 28.7221 36.7 27.3747 36.7 26.1C36.7 25.4199 36.6155 24.7838 36.3785 24.1911C36.1372 23.588 35.7609 23.087 35.2585 22.6474C34.1725 21.6971 32.5548 21.4 30.7 21.4C28.7065 21.4 26.8393 21.9556 25.1097 22.9284L25.0896 22.9398L25.07 22.952C23.3176 24.0473 21.9781 25.4924 21.0907 27.4837L20.7329 28.2441Z" fill="url(#paint0_linear)" stroke="#F1C256" stroke-width="2"/>
<defs>
<linearGradient id="paint0_linear" x1="32.5" y1="0" x2="32.5" y2="75.6" gradientUnits="userSpaceOnUse">
<stop stop-color="#B58B4A"/>
<stop offset="0.291667" stop-color="#E4BA13"/>
<stop offset="0.755208" stop-color="#E1B714"/>
<stop offset="1" stop-color="#B9914E"/>
</linearGradient>
</defs>
</svg>
